<svg id="Layer_1" data-name="Layer 1" xmlns="http://www.w3.org/2000/svg" viewBox="0 0 22.9 23.28"><defs><style>.cls-1{fill:#2aacc5;}.cls-2{fill:#2bacc5;}</style></defs><path class="cls-1" d="M17.67,0a3.16,3.16,0,0,1,.71.36A1.54,1.54,0,0,1,19,1.54q0,.92,0,1.83a1.6,1.6,0,0,1-3.18.15,8.91,8.91,0,0,1,0-2.19,1.49,1.49,0,0,1,1-1.23c.08,0,.17,0,.23-.1Z" transform="translate(-0.23 0)"/><path class="cls-1" d="M6.22,0a5.51,5.51,0,0,1,.65.31,1.54,1.54,0,0,1,.65,1.22,12.27,12.27,0,0,1,0,2,1.6,1.6,0,0,1-3.17-.08c0-.66,0-1.33,0-2A1.55,1.55,0,0,1,5.41.09c.07,0,.14,0,.18-.09Z" transform="translate(-0.23 0)"/><path class="cls-1" d="M11.78,23.25H1.54a3.11,3.11,0,0,0-.43,0,.75.75,0,0,1-.88-.78V3c0-.22,0-.29.27-.29.92,0,1.84,0,2.75,0,.21,0,.26.06.25.26a3.4,3.4,0,0,0,.23,1.64A2.46,2.46,0,0,0,8.37,4a7,7,0,0,0,0-1c0-.15,0-.2.19-.2q3.09,0,6.17,0c.16,0,.19.06.19.2a3.9,3.9,0,0,0,.17,1.52,2.45,2.45,0,0,0,4.73-.79c0-.24,0-.49,0-.74s0-.18.17-.18h2.92c.13,0,.19,0,.17.17v.13q0,9.47,0,18.91c0,.15,0,.29,0,.44a.84.84,0,0,1-.8.8,4.13,4.13,0,0,1-.5,0Zm-.11-1.63h9.55c.22,0,.28,0,.28-.27q0-6.27,0-12.55c0-.21-.05-.28-.27-.28H2.12c-.21,0-.27.06-.27.27q0,6.29,0,12.57c0,.2,0,.26.26.26Z" transform="translate(-0.23 0)"/><path class="cls-2" d="M9.71,10.28h1.08c.15,0,.2,0,.2.19,0,.64,0,1.28,0,1.93,0,.14-.05.18-.18.18H8.58c-.13,0-.18,0-.18-.18q0-1,0-2c0-.13,0-.17.17-.17Z" transform="translate(-0.23 0)"/><path class="cls-2" d="M13.86,12.56H12.75c-.13,0-.17,0-.17-.17v-2c0-.12,0-.18.16-.18H15c.12,0,.17,0,.17.16,0,.65,0,1.31,0,2,0,.13-.06.17-.18.17Z" transform="translate(-0.23 0)"/><path class="cls-2" d="M9.69,20.2H8.58c-.14,0-.18,0-.18-.18,0-.64,0-1.28,0-1.93,0-.13,0-.18.18-.18q1.11,0,2.22,0c.15,0,.19,0,.19.2,0,.63,0,1.27,0,1.9,0,.15,0,.2-.19.19Z" transform="translate(-0.23 0)"/><path class="cls-2" d="M13.85,20.2H12.76c-.12,0-.19,0-.18-.17v-2c0-.12,0-.17.16-.17q1.13,0,2.25,0c.14,0,.18.05.18.19q0,1,0,1.92c0,.14-.05.19-.18.18Z" transform="translate(-0.23 0)"/><path class="cls-2" d="M17.74,10.28h1.11c.14,0,.18.05.18.18,0,.65,0,1.29,0,1.93,0,.14,0,.19-.18.19H16.61c-.13,0-.17-.05-.17-.18q0-1,0-2c0-.12,0-.17.17-.17Z" transform="translate(-0.23 0)"/><path class="cls-2" d="M5.6,17.91c.37,0,.74,0,1.11,0,.14,0,.19.05.19.19q0,1,0,1.92c0,.15-.06.18-.19.18H4.49c-.15,0-.18-.05-.18-.18,0-.64,0-1.29,0-1.93,0-.14.05-.18.18-.18C4.86,17.92,5.23,17.91,5.6,17.91Z" transform="translate(-0.23 0)"/><path class="cls-2" d="M17.72,20.2H16.61c-.13,0-.17,0-.17-.17q0-1,0-2c0-.12,0-.17.17-.17.74,0,1.49,0,2.24,0,.14,0,.18.05.18.19q0,1,0,1.92c0,.14,0,.19-.18.18Z" transform="translate(-0.23 0)"/><path class="cls-2" d="M9.67,16.34H8.59c-.14,0-.19,0-.19-.18,0-.64,0-1.28,0-1.93,0-.14,0-.18.18-.17h2.23c.13,0,.18,0,.18.17,0,.64,0,1.29,0,1.93,0,.14-.05.18-.18.18Z" transform="translate(-0.23 0)"/><path class="cls-2" d="M13.87,14.07H15c.13,0,.18,0,.18.18q0,1,0,1.92c0,.13,0,.18-.17.18-.76,0-1.51,0-2.27,0-.12,0-.15-.05-.15-.16v-2c0-.12.05-.15.16-.14Z" transform="translate(-0.23 0)"/><path class="cls-2" d="M17.73,16.34H16.6c-.12,0-.16,0-.16-.16,0-.66,0-1.31,0-2,0-.13,0-.15.16-.15h2.27c.12,0,.16,0,.16.15,0,.66,0,1.32,0,2,0,.13-.05.16-.16.16Z" transform="translate(-0.23 0)"/><path class="cls-2" d="M5.6,14.07H6.71c.14,0,.19,0,.19.18,0,.63,0,1.26,0,1.9,0,.14,0,.2-.19.2q-1.11,0-2.22,0c-.15,0-.18-.05-.18-.19q0-1,0-1.92c0-.15.05-.18.18-.17Z" transform="translate(-0.23 0)"/></svg>