<svg id="Layer_1" data-name="Layer 1" xmlns="http://www.w3.org/2000/svg" viewBox="0 0 294.38 294.37"><path d="M0,155.79V138.55a19.76,19.76,0,0,0,.49-2.48A139.85,139.85,0,0,1,20.38,72.61c23.31-38.46,57.14-62,101.43-70.33C127.34,1.25,133,.75,138.55,0h17.24A15.67,15.67,0,0,0,158,.47c20.54,1.4,40.06,6.7,58,16.74C264.37,44.3,290.68,85.68,294.1,141A134.76,134.76,0,0,1,277,216.22c-27,48.24-68.42,74.47-123.66,77.88a136.39,136.39,0,0,1-75.2-17.05c-41.5-22.84-66.88-57.66-75.83-104.26C1.24,167.18.76,161.46,0,155.79Zm277.86-8.7c-.14-72.23-58.73-130.76-130.77-130.61C74.85,16.62,16.34,75.2,16.48,147.25,16.61,219.48,75.2,278,147.25,277.86,219.49,277.72,278,219.14,277.86,147.09Z"/><path d="M153.53,116.91c0,9.58-.06,19.16,0,28.74a9,9,0,0,1-2.8,6.91q-34.08,34-68.11,68.06c-3.88,3.87-7.89,3.93-10.56.29-1.65-2.24-1.89-4.62-.26-6.92a31.27,31.27,0,0,1,3.41-3.87q31.8-31.81,63.64-63.58a6,6,0,0,0,2-4.76c-.08-17.72,0-35.44,0-53.17,0-5.53,2.19-8.52,6.28-8.6s6.44,3,6.44,8.73Q153.54,102.82,153.53,116.91Z"/><path d="M153.64,41.49a35.73,35.73,0,0,1-.71,4.85,5.83,5.83,0,0,1-5.78,4.26c-2.7,0-5.28-1.61-5.71-4.3a35.72,35.72,0,0,1-.3-9.35c.33-3,3.16-4.9,6.19-4.83A6.07,6.07,0,0,1,153.27,37,37.39,37.39,0,0,1,153.64,41.49Z"/><path d="M41.26,153.6a35.46,35.46,0,0,1-3.89-.24,6.15,6.15,0,0,1-5.25-6.2A5.92,5.92,0,0,1,37.39,141a34,34,0,0,1,8.25.22,5.72,5.72,0,0,1,5,5.8,5.92,5.92,0,0,1-5,6.1A36.93,36.93,0,0,1,41.26,153.6Z"/><path d="M252.86,153.64a37,37,0,0,1-4.85-.7,5.83,5.83,0,0,1-4.27-5.78c0-2.69,1.61-5.28,4.29-5.72a35.72,35.72,0,0,1,9.35-.3c3,.32,4.91,3.15,4.84,6.18a6.07,6.07,0,0,1-4.86,6A37,37,0,0,1,252.86,153.64Z"/><path d="M153.59,253.12c-.07,1.41,0,2.57-.19,3.7a6.21,6.21,0,0,1-6.37,5.4,6,6,0,0,1-6-5.4,33.82,33.82,0,0,1,.21-8,5.79,5.79,0,0,1,6-5.1,6,6,0,0,1,6,5.1A41.79,41.79,0,0,1,153.59,253.12Z"/><path d="M81.05,75.62c-.94,1.17-1.94,3.4-3.63,4.23a7.13,7.13,0,0,1-5.81-.15,24.82,24.82,0,0,1-6.25-5.78,5.81,5.81,0,0,1,.66-8,5.87,5.87,0,0,1,7.82-.63C77,67.74,80.12,70.32,81.05,75.62Z"/><path d="M218.82,81.07c-1.17-.92-3.42-1.88-4.28-3.56a7,7,0,0,1,.05-5.8,25.9,25.9,0,0,1,6-6.45,5.77,5.77,0,0,1,7.8.68,5.87,5.87,0,0,1,.77,7.81C226.68,76.91,224.09,80,218.82,81.07Z"/><path d="M219.56,213.55c3.75-.08,10.71,6.49,10.7,10.26a6.13,6.13,0,0,1-3.34,5.62c-2.1,1.17-4.37,1.32-6.17-.22a34.66,34.66,0,0,1-6.27-6.6C211.91,218.86,215,213.64,219.56,213.55Z"/></svg>