<svg width="30" height="30" viewBox="0 0 30 30" fill="none" xmlns="http://www.w3.org/2000/svg">
<circle cx="15" cy="15" r="15" fill="white"/>
<path fill-rule="evenodd" clip-rule="evenodd" d="M15 5C12.2842 5 11.9436 5.01151 10.877 5.06018C9.81263 5.10872 9.08569 5.27779 8.44962 5.52501C7.79203 5.78052 7.23436 6.12246 6.67839 6.67839C6.12246 7.23436 5.78052 7.79203 5.52501 8.44962C5.27779 9.08569 5.10872 9.81263 5.06018 10.877C5.01151 11.9436 5 12.2842 5 15C5 17.7158 5.01151 18.0564 5.06018 19.123C5.10872 20.1874 5.27779 20.9143 5.52501 21.5504C5.78052 22.208 6.12246 22.7656 6.67839 23.3216C7.23436 23.8775 7.79203 24.2195 8.44962 24.475C9.08569 24.7222 9.81263 24.8913 10.877 24.9398C11.9436 24.9885 12.2842 25 15 25C17.7158 25 18.0564 24.9885 19.123 24.9398C20.1874 24.8913 20.9143 24.7222 21.5504 24.475C22.208 24.2195 22.7656 23.8775 23.3216 23.3216C23.8775 22.7656 24.2195 22.208 24.475 21.5504C24.7222 20.9143 24.8913 20.1874 24.9398 19.123C24.9885 18.0564 25 17.7158 25 15C25 12.2842 24.9885 11.9436 24.9398 10.877C24.8913 9.81263 24.7222 9.08569 24.475 8.44962C24.2195 7.79203 23.8775 7.23436 23.3216 6.67839C22.7656 6.12246 22.208 5.78052 21.5504 5.52501C20.9143 5.27779 20.1874 5.10872 19.123 5.06018C18.0564 5.01151 17.7158 5 15 5ZM15 6.8018C17.6701 6.8018 17.9864 6.812 19.0409 6.86011C20.0158 6.90457 20.5453 7.06748 20.8977 7.20443C21.3645 7.38583 21.6976 7.60253 22.0475 7.95248C22.3975 8.30239 22.6142 8.63551 22.7956 9.10229C22.9325 9.45466 23.0954 9.98415 23.1399 10.9591C23.188 12.0136 23.1982 12.3299 23.1982 15C23.1982 17.6701 23.188 17.9864 23.1399 19.0409C23.0954 20.0158 22.9325 20.5453 22.7956 20.8977C22.6142 21.3645 22.3975 21.6976 22.0475 22.0475C21.6976 22.3975 21.3645 22.6142 20.8977 22.7956C20.5453 22.9325 20.0158 23.0954 19.0409 23.1399C17.9866 23.188 17.6703 23.1982 15 23.1982C12.3297 23.1982 12.0135 23.188 10.9591 23.1399C9.98415 23.0954 9.45466 22.9325 9.10229 22.7956C8.63551 22.6142 8.30239 22.3975 7.95248 22.0475C7.60257 21.6976 7.38583 21.3645 7.20443 20.8977C7.06748 20.5453 6.90457 20.0158 6.86011 19.0409C6.812 17.9864 6.8018 17.6701 6.8018 15C6.8018 12.3299 6.812 12.0136 6.86011 10.9591C6.90457 9.98415 7.06748 9.45466 7.20443 9.10229C7.38583 8.63551 7.60253 8.30239 7.95248 7.95248C8.30239 7.60253 8.63551 7.38583 9.10229 7.20443C9.45466 7.06748 9.98415 6.90457 10.9591 6.86011C12.0136 6.812 12.3299 6.8018 15 6.8018Z" fill="url(#paint0_linear_35_1750)"/>
<path fill-rule="evenodd" clip-rule="evenodd" d="M15 18.3333C13.159 18.3333 11.6667 16.841 11.6667 15C11.6667 13.159 13.159 11.6667 15 11.6667C16.841 11.6667 18.3333 13.159 18.3333 15C18.3333 16.841 16.841 18.3333 15 18.3333ZM15 9.86487C12.1639 9.86487 9.86487 12.1639 9.86487 15C9.86487 17.8361 12.1639 20.1351 15 20.1351C17.8361 20.1351 20.1351 17.8361 20.1351 15C20.1351 12.1639 17.8361 9.86487 15 9.86487Z" fill="url(#paint1_linear_35_1750)"/>
<path fill-rule="evenodd" clip-rule="evenodd" d="M21.5381 9.662C21.5381 10.3247 21.0008 10.862 20.338 10.862C19.6753 10.862 19.1381 10.3247 19.1381 9.662C19.1381 8.99925 19.6753 8.46198 20.338 8.46198C21.0008 8.46198 21.5381 8.99925 21.5381 9.662Z" fill="url(#paint2_linear_35_1750)"/>
<defs>
<linearGradient id="paint0_linear_35_1750" x1="15" y1="35" x2="35" y2="15" gradientUnits="userSpaceOnUse">
<stop stop-color="#FFD522"/>
<stop offset="0.497382" stop-color="#F1000B"/>
<stop offset="1" stop-color="#B900B3"/>
</linearGradient>
<linearGradient id="paint1_linear_35_1750" x1="15" y1="25.2703" x2="25.2703" y2="15" gradientUnits="userSpaceOnUse">
<stop stop-color="#FFD522"/>
<stop offset="0.497382" stop-color="#F1000B"/>
<stop offset="1" stop-color="#B900B3"/>
</linearGradient>
<linearGradient id="paint2_linear_35_1750" x1="20.3381" y1="12.062" x2="22.7381" y2="9.66198" gradientUnits="userSpaceOnUse">
<stop stop-color="#FFD522"/>
<stop offset="0.497382" stop-color="#F1000B"/>
<stop offset="1" stop-color="#B900B3"/>
</linearGradient>
</defs>
</svg>
