<svg width="25" height="25" viewBox="0 0 25 25" fill="none" xmlns="http://www.w3.org/2000/svg">
<circle cx="12.5" cy="12.5" r="12.5" fill="url(#paint0_linear_35_1708)"/>
<path fill-rule="evenodd" clip-rule="evenodd" d="M12.5 4.16669C10.2368 4.16669 9.95304 4.17628 9.0642 4.21684C8.17721 4.25729 7.57143 4.39818 7.04137 4.60419C6.49338 4.81712 6.02865 5.10207 5.56534 5.56534C5.10207 6.02865 4.81712 6.49338 4.60419 7.04137C4.39818 7.57143 4.25729 8.17721 4.21684 9.0642C4.17628 9.95304 4.16669 10.2368 4.16669 12.5C4.16669 14.7632 4.17628 15.047 4.21684 15.9358C4.25729 16.8228 4.39818 17.4286 4.60419 17.9587C4.81712 18.5067 5.10207 18.9714 5.56534 19.4347C6.02865 19.898 6.49338 20.1829 7.04137 20.3959C7.57143 20.6019 8.17721 20.7428 9.0642 20.7832C9.95304 20.8238 10.2368 20.8334 12.5 20.8334C14.7632 20.8334 15.047 20.8238 15.9358 20.7832C16.8228 20.7428 17.4286 20.6019 17.9587 20.3959C18.5067 20.1829 18.9714 19.898 19.4347 19.4347C19.898 18.9714 20.1829 18.5067 20.3959 17.9587C20.6019 17.4286 20.7428 16.8228 20.7832 15.9358C20.8238 15.047 20.8334 14.7632 20.8334 12.5C20.8334 10.2368 20.8238 9.95304 20.7832 9.0642C20.7428 8.17721 20.6019 7.57143 20.3959 7.04137C20.1829 6.49338 19.898 6.02865 19.4347 5.56534C18.9714 5.10207 18.5067 4.81712 17.9587 4.60419C17.4286 4.39818 16.8228 4.25729 15.9358 4.21684C15.047 4.17628 14.7632 4.16669 12.5 4.16669ZM12.5 5.66819C14.7251 5.66819 14.9887 5.67669 15.8674 5.71678C16.6799 5.75383 17.1211 5.88959 17.4148 6.00371C17.8038 6.15488 18.0814 6.33546 18.373 6.62709C18.6646 6.91868 18.8452 7.19628 18.9963 7.58526C19.1105 7.8789 19.2462 8.32015 19.2833 9.13264C19.3234 10.0114 19.3319 10.2749 19.3319 12.5C19.3319 14.7251 19.3234 14.9887 19.2833 15.8674C19.2462 16.6799 19.1105 17.1211 18.9963 17.4148C18.8452 17.8038 18.6646 18.0814 18.373 18.373C18.0814 18.6646 17.8038 18.8452 17.4148 18.9963C17.1211 19.1105 16.6799 19.2462 15.8674 19.2833C14.9888 19.3234 14.7253 19.3319 12.5 19.3319C10.2748 19.3319 10.0113 19.3234 9.13264 19.2833C8.32015 19.2462 7.8789 19.1105 7.58526 18.9963C7.19628 18.8452 6.91868 18.6646 6.62709 18.373C6.33549 18.0814 6.15488 17.8038 6.00371 17.4148C5.88959 17.1211 5.75383 16.6799 5.71678 15.8674C5.67669 14.9887 5.66819 14.7251 5.66819 12.5C5.66819 10.2749 5.67669 10.0114 5.71678 9.13264C5.75383 8.32015 5.88959 7.8789 6.00371 7.58526C6.15488 7.19628 6.33546 6.91868 6.62709 6.62709C6.91868 6.33546 7.19628 6.15488 7.58526 6.00371C7.8789 5.88959 8.32015 5.75383 9.13264 5.71678C10.0114 5.67669 10.2749 5.66819 12.5 5.66819Z" fill="white"/>
<path fill-rule="evenodd" clip-rule="evenodd" d="M12.5001 15.2778C10.9659 15.2778 9.72226 14.0342 9.72226 12.5001C9.72226 10.9659 10.9659 9.72226 12.5001 9.72226C14.0342 9.72226 15.2778 10.9659 15.2778 12.5001C15.2778 14.0342 14.0342 15.2778 12.5001 15.2778ZM12.5001 8.22076C10.1366 8.22076 8.22076 10.1366 8.22076 12.5001C8.22076 14.8634 10.1366 16.7793 12.5001 16.7793C14.8634 16.7793 16.7793 14.8634 16.7793 12.5001C16.7793 10.1366 14.8634 8.22076 12.5001 8.22076Z" fill="white"/>
<path fill-rule="evenodd" clip-rule="evenodd" d="M17.9484 8.05165C17.9484 8.60394 17.5006 9.05164 16.9483 9.05164C16.3961 9.05164 15.9484 8.60394 15.9484 8.05165C15.9484 7.49936 16.3961 7.05164 16.9483 7.05164C17.5006 7.05164 17.9484 7.49936 17.9484 8.05165Z" fill="white"/>
<defs>
<linearGradient id="paint0_linear_35_1708" x1="12.5" y1="37.5" x2="37.5" y2="12.5" gradientUnits="userSpaceOnUse">
<stop stop-color="#FFD522"/>
<stop offset="0.497382" stop-color="#F1000B"/>
<stop offset="1" stop-color="#B900B3"/>
</linearGradient>
</defs>
</svg>
