<svg id="Layer_1" data-name="Layer 1" xmlns="http://www.w3.org/2000/svg" viewBox="0 0 363.01 363.28"><path d="M44.81,178.45c10.5,0,21,0,31.51,0,6.36,0,9,2.7,9.15,9.15a100.56,100.56,0,0,0,86.26,97.91c56,8.4,108.64-32.78,114.15-89.25.31-3.23.43-6.48.6-9.72.26-5.1,3-8.05,7.94-8.06q32.44-.12,64.89,0c5.35,0,8.2,3.06,8.16,8.57-.21,27.28-5.81,53.41-18.06,77.8-27,53.8-70.11,87.68-129.17,99.12C162.17,375.21,110,360.59,65.56,321.51,25.68,286.39,5.94,241.31,4.47,188.24c-.19-7.14,2.5-9.78,9.59-9.79ZM309.37,297.87c26.32-29.57,40.83-64.16,42.95-104.22h-51a119.85,119.85,0,0,1-8.54,36.45,116.42,116.42,0,0,1-19.53,31.62ZM261.9,273a116.31,116.31,0,0,1-31.6,19.64,120.83,120.83,0,0,1-36.61,8.63v51c40.09-2.18,74.73-16.62,104.38-43.2Zm-163-11.11c-17-19.62-26.24-42.49-28.29-68.23h-51c2.21,40.1,16.64,74.73,43.22,104.39ZM73.83,309.15c29.86,26.59,64.43,41,104.41,43.2V301.29c-25.88-2-48.78-11.44-68.23-28.23Z" transform="translate(-4.46 -4.37)"/><path d="M205.47,253.48c0,5.43,0,10.41,0,15.39-.07,5.69-2.89,8.55-8.54,8.6-7.38.06-14.76.07-22.13,0-5.41,0-8.24-3-8.31-8.44-.07-5,0-10,0-15.54H152.62c-7.69,0-10.16-2.44-10.16-10,0-16.75,0-33.5-.09-50.26a5.82,5.82,0,0,0-1.91-4.27C97.93,160.69,95,100.41,133,66.89c23.87-21.09,51.73-26.39,81.41-15C243.73,63.17,261,85.43,264.7,116.78c3.55,30-8,53.93-32.52,71.54-1.94,1.4-2.78,2.68-2.77,5.11.12,16.75.07,33.51.06,50.26,0,7.16-2.58,9.77-9.63,9.78C215.23,253.49,210.62,253.48,205.47,253.48Zm9.21-63.19c-1.25-6.54,2-9.71,6.87-13a70.94,70.94,0,0,0,16.51-15c17-22.25,16.54-51.61-.41-74.92-15.76-21.68-44.19-31-70.41-23.19-25.68,7.69-44.68,31.54-45.65,58-.9,24.58,9.32,43.46,30.48,56.16,3.72,2.24,5.71,5.05,5.41,9.41a15,15,0,0,0,.25,2.47Zm-57,23.92h56.53v-8.56H157.64Zm-.1,24h56.65v-8.47H157.54Zm32.79,15.54h-8.66v8.47h8.66Z" transform="translate(-4.46 -4.37)"/><path d="M138.83,46.12C138,45.39,137,44.83,136.6,44c-3.64-7.1-7.15-14.28-10.75-21.4-.91-1.79-.76-3,1.22-3.9,2.73-1.24,5.39-2.62,8-4,1.9-1,3.2-.76,4.22,1.32q5.17,10.62,10.55,21.13c1,1.93.85,3.17-1.29,4.14C145.41,42.7,142.34,44.35,138.83,46.12Z" transform="translate(-4.46 -4.37)"/><path d="M227.05,46.29c-4.06-2.12-7.64-3.87-11.05-5.91-.47-.28-.48-2.11-.09-2.93,3.48-7.19,7.13-14.3,10.63-21.48.93-1.89,2.06-2.13,3.91-1.41,11.32,4.41,11.33,4.38,6,15.11-2.29,4.58-4.53,9.19-6.91,13.72A17,17,0,0,1,227.05,46.29Z" transform="translate(-4.46 -4.37)"/><path d="M287.6,52.14a13.16,13.16,0,0,1-1.48,2.22C280.94,59.61,275.69,64.8,270.51,70c-1.67,1.69-3.16,1.67-4.79,0-9.61-10-9.52-6.64-.55-15.9,3.13-3.23,6.5-6.25,9.49-9.6,2.28-2.54,4-2.32,6.09.12,1.62,1.89,3.53,3.54,5.26,5.34A20.76,20.76,0,0,1,287.6,52.14Z" transform="translate(-4.46 -4.37)"/><path d="M94.17,42.25a15,15,0,0,1,2.22,1.5c5.24,5.18,10.42,10.42,15.66,15.6,1.53,1.52,1.72,2.87.07,4.44-10.57,10.1-6.57,9.91-16.32.58-3.25-3.11-6.3-6.42-9.57-9.5-2-1.84-2.24-3.35-.09-5.25S90,45.74,92,43.84A20.57,20.57,0,0,1,94.17,42.25Z" transform="translate(-4.46 -4.37)"/><path d="M193.47,18c0,3.49-.05,7,0,10.46,0,2-.8,3-2.87,2.93h-.38c-11.76.57-11.76.57-11.76-11.2,0-4.23.05-8.46,0-12.69,0-2.2.81-3.21,3.07-3.14q4.49.13,9,0c2.31-.07,3.07,1,3,3.19C193.41,11,193.47,14.53,193.47,18Z" transform="translate(-4.46 -4.37)"/><path d="M187.47,77.84c0,7,0,7-6.81,8.07-14.06,2.26-25.84,8.14-31.64,22-2.08,4.94-2.67,10.58-3.41,16-.37,2.7-1.11,3.81-3.85,3.63a53.49,53.49,0,0,0-7.49,0c-3,.22-3.85-1-3.84-3.92.15-24.65,15.87-44.89,39.77-50.82a96.49,96.49,0,0,1,12.14-2.17c4.83-.56,5.12-.15,5.13,4.66Z" transform="translate(-4.46 -4.37)"/><path d="M145.46,144.14c-.05,8.24.86,7.29-7.42,7.29-8.56,0-7.57,1-7.57-7.51s-1-7.46,7.6-7.47C146.47,136.44,145.38,135.51,145.46,144.14Z" transform="translate(-4.46 -4.37)"/></svg>