<svg width="29" height="30" viewBox="0 0 29 30" fill="none" xmlns="http://www.w3.org/2000/svg">
<ellipse cx="14.5" cy="15" rx="14.5" ry="15" fill="white"/>
<path d="M22.3529 21.875H19.3507V17.0028C19.3507 15.841 19.3306 14.3453 17.7892 14.3453C16.2256 14.3453 15.9863 15.6111 15.9863 16.9182V21.8746H12.9842V11.8554H15.8662V13.2246H15.9066C16.4935 12.1849 17.5886 11.5616 18.7503 11.6063C21.7931 11.6063 22.3541 13.6803 22.3541 16.3786L22.3529 21.875Z" fill="#0A66C2"/>
<path d="M9.59677 10.4858C9.59659 10.4858 9.5965 10.4858 9.59641 10.4858C8.64065 10.4858 7.85419 9.6709 7.85419 8.68045C7.85419 7.69001 8.64065 6.875 9.59641 6.875C10.5521 6.875 11.3384 7.68982 11.3386 8.68008C11.3386 8.68017 11.3386 8.68027 11.3386 8.68045C11.3386 9.67071 10.5523 10.4857 9.59677 10.4858Z" fill="#0A66C2"/>
<path d="M11.0978 21.875H8.09253V11.8554H11.0978V21.875Z" fill="#0A66C2"/>
</svg>
