<svg width="25" height="25" viewBox="0 0 25 25" fill="none" xmlns="http://www.w3.org/2000/svg">
<circle cx="12.5" cy="12.5" r="12.5" fill="#0A66C2"/>
<path d="M19.2697 18.2292H16.6816V14.169C16.6816 13.2008 16.6644 11.9544 15.3356 11.9544C13.9876 11.9544 13.7813 13.0093 13.7813 14.0985V18.2288H11.1933V9.87949H13.6778V11.0205H13.7127C14.2185 10.154 15.1626 9.63461 16.164 9.67186C18.7872 9.67186 19.2708 11.4002 19.2708 13.6488L19.2697 18.2292Z" fill="white"/>
<path d="M8.27304 8.7382C8.27288 8.7382 8.2728 8.7382 8.27273 8.7382C7.4488 8.7382 6.77081 8.0591 6.77081 7.23373C6.77081 6.40836 7.4488 5.72919 8.27273 5.72919C9.09657 5.72919 9.77448 6.4082 9.77464 7.23342C9.77464 7.2335 9.77464 7.23358 9.77464 7.23373C9.77464 8.05895 9.09681 8.73812 8.27304 8.7382Z" fill="white"/>
<path d="M9.56709 18.2292H6.97632V9.87952H9.56709V18.2292Z" fill="white"/>
</svg>
