<svg width="32" height="32" viewBox="0 0 32 32" fill="none" xmlns="http://www.w3.org/2000/svg">
<circle cx="16" cy="16" r="16" fill="white"/>
<path fill-rule="evenodd" clip-rule="evenodd" d="M24.3115 9.10991C25.2289 9.35167 25.9546 10.0635 26.2011 10.9634C26.653 12.602 26.6666 16 26.6666 16C26.6666 16 26.6666 19.4115 26.2148 21.0367C25.9683 21.9365 25.2426 22.6484 24.3252 22.8901C22.6684 23.3334 16 23.3334 16 23.3334C16 23.3334 9.3316 23.3334 7.67478 22.8901C6.75736 22.6484 6.03164 21.9365 5.78517 21.0367C5.33331 19.3981 5.33331 16 5.33331 16C5.33331 16 5.33331 12.602 5.77148 10.9768C6.01795 10.0769 6.74367 9.3651 7.66108 9.12334C9.31791 8.68012 15.9863 8.66669 15.9863 8.66669C15.9863 8.66669 22.6547 8.66669 24.3115 9.10991ZM19.3958 16L13.8639 19.1429V12.8572L19.3958 16Z" fill="#FF0000"/>
</svg>
