<svg width="25" height="25" viewBox="0 0 25 25" fill="none" xmlns="http://www.w3.org/2000/svg">
<circle cx="12.5" cy="12.5" r="12.5" fill="#FF0000"/>
<path fill-rule="evenodd" clip-rule="evenodd" d="M18.9934 7.11708C19.7101 7.30595 20.2771 7.86208 20.4696 8.56511C20.8227 9.84526 20.8334 12.5 20.8334 12.5C20.8334 12.5 20.8334 15.1652 20.4803 16.4348C20.2878 17.1379 19.7208 17.694 19.0041 17.8829C17.7097 18.2291 12.5 18.2291 12.5 18.2291C12.5 18.2291 7.29035 18.2291 5.99596 17.8829C5.27922 17.694 4.71226 17.1379 4.5197 16.4348C4.16669 15.1547 4.16669 12.5 4.16669 12.5C4.16669 12.5 4.16669 9.84526 4.50901 8.57561C4.70156 7.87258 5.26853 7.31645 5.98526 7.12757C7.27965 6.78131 12.4893 6.77081 12.4893 6.77081C12.4893 6.77081 17.699 6.77081 18.9934 7.11708ZM15.153 12.5L10.8312 14.9553V10.0446L15.153 12.5Z" fill="white"/>
</svg>
